<svg id="Layer_1" enable-background="new 0 0 240 241.461" viewBox="0 0 240 241.461" xmlns="http://www.w3.org/2000/svg"><g><path d="m0 42.582v8h5.668v2 17.666c0 2.762 2.238 5 5 5h1.334c2.761 0 5-2.238 5-5v-17.666-2h48.896c.047-1.288.097-2.597.154-3.945.063-1.445.403-2.812.961-4.055h-50.011v-2-17.666c0-2.762-2.239-5-5-5h-1.334c-2.762 0-5 2.238-5 5v17.666 2z"/><path d="m87.914 50.582h64.166c-.037-.984-.076-1.98-.12-3.001-.076-1.781.288-3.477.979-4.999h-18.879c-3.998 2.799-8.845 4.419-14.04 4.419-1.866 0-3.742-.217-5.573-.642-3.092-.72-5.951-2.013-8.477-3.777h-18.915c.691 1.522 1.055 3.218.979 4.999-.044 1.02-.083 2.017-.12 3.001z"/><path d="m172.979 42.582c.559 1.243.899 2.609.962 4.055.057 1.349.107 2.657.154 3.945h48.905v2 17.666c0 2.762 2.238 5 5 5h1.334c2.761 0 5-2.238 5-5v-17.666-2h5.666v-8h-5.666v-2-17.666c0-2.762-2.239-5-5-5h-1.334c-2.762 0-5 2.238-5 5v17.666 2z"/><path d="m166.583 94.398c.002-.002.005-.004.008-.007.023-.022.04-.044.063-.065.22-.208.427-.424.621-.648 1.681-1.861 2.325-3.562 2.91-5.178.611-1.837.989-3.712 1.302-5.895.608-4.34.896-9.925.902-17.525 0-3.679-.075-7.833-.227-12.498-.021-.656-.045-1.324-.069-2-.046-1.254-.095-2.532-.151-3.858-.066-1.513-.504-2.919-1.218-4.142-.433-.742-.969-1.414-1.587-2-1.708-1.619-4.039-2.575-6.575-2.467-2.256.098-4.278 1.024-5.798 2.467-.619.587-1.154 1.26-1.586 2-.84 1.439-1.298 3.125-1.222 4.913.045 1.058.086 2.081.124 3.087.026.676.05 1.347.073 2 .062 1.826.11 3.555.147 5.207.06 2.643.089 5.077.089 7.291 0 3.413-.067 6.329-.187 8.768-.653-1.856-1.411-4.399-1.696-6.875-.074-.641-.118-1.276-.118-1.893 0-1.293-.01-2.653-.03-4.069-.026-1.907-.07-3.923-.132-6.041-1.638-1.494-3.792-2.353-6.045-2.358-.027-.012-.056-.019-.083-.03h-52.196c-.028.011-.057.019-.084.03-2.256.003-4.412.862-6.051 2.357-.062 2.127-.106 4.154-.132 6.069-.019 1.406-.029 2.756-.029 4.041 0 .608-.044 1.235-.115 1.867-.283 2.484-1.043 5.039-1.698 6.901-.12-2.439-.187-5.355-.187-8.768 0-2.214.03-4.648.089-7.292.037-1.651.085-3.38.147-5.206.022-.653.047-1.324.072-2 .038-1.006.078-2.029.124-3.087.076-1.789-.382-3.474-1.222-4.913-.432-.74-.966-1.413-1.585-2-1.52-1.442-3.541-2.369-5.798-2.467-2.536-.108-4.868.848-6.575 2.467-.618.586-1.154 1.258-1.587 2-.713 1.223-1.152 2.629-1.217 4.142-.057 1.327-.106 2.604-.151 3.858-.025.676-.048 1.344-.069 2-.153 4.665-.227 8.819-.227 12.498.006 7.601.294 13.186.902 17.525.313 2.183.691 4.058 1.302 5.895.584 1.611 1.224 3.305 2.893 5.159.217.242.448.485.702.732.168.156.344.298.521.439-.004.004-.008.008-.012.013 1.573 1.299 4.009 2.348 6.366 2.348.059 0 .118 0 .177-.002 2.421-.01 4.28-.813 5.556-1.573 2.387-1.493 3.482-2.948 4.575-4.366.305-.42.581-.853.864-1.283l4.636 26.967c-.379.916-.673 1.882-.847 2.901l-18.094 105.85c-1.256 7.351 3.685 14.326 11.033 15.583.769.131 1.535.195 2.29.195 6.458 0 12.167-4.648 13.29-11.228l15.533-90.898h1.41l15.533 90.898c1.124 6.579 6.834 11.227 13.29 11.228.755 0 1.52-.064 2.29-.195 7.35-1.256 12.288-8.232 11.032-15.583l-18.088-105.849c-.173-1.017-.466-1.982-.845-2.897l4.631-26.939c.714 1.097 1.5 2.166 2.53 3.26.742.768 1.609 1.573 2.908 2.359 1.273.76 3.132 1.561 5.555 1.573.057.002.114.002.171.002 2.37 0 4.81-1.061 6.37-2.351-.003-.004-.007-.007-.01-.011.174-.139.346-.279.512-.433z"/><path d="m114.899 44.409c5.346 1.245 10.689.469 15.233-1.827 1.135-.574 2.219-1.244 3.242-2 4.149-3.065 7.273-7.562 8.535-12.979 2.818-12.1-4.707-24.193-16.807-27.012-12.1-2.817-24.193 4.709-27.012 16.808-2.096 9.006 1.54 18.006 8.525 23.183 1.015.752 2.1 1.421 3.249 2 1.568.79 3.25 1.412 5.035 1.827z"/></g></svg>